<mxfile host="app.diagrams.net" modified="2023-08-14T19:19:13.619Z" agent="Mozilla/5.0 (Windows NT 10.0; Win64; x64; rv:109.0) Gecko/20100101 Firefox/116.0" etag="LBQS1m4tFzGuu4fjJ4-A" version="21.6.8" type="device">
  <diagram name="Page-1" id="AGp9k4NgMVpliDJdycsb">
    <mxGraphModel dx="1509" dy="785" grid="1" gridSize="10" guides="1" tooltips="1" connect="1" arrows="1" fold="1" page="1" pageScale="1" pageWidth="1169" pageHeight="827" math="0" shadow="0">
      <root>
        <mxCell id="0" />
        <mxCell id="1" parent="0" />
        <mxCell id="oHPK-ylT67RkrpIPKsx3-16" value="story__questions" style="swimlane;html=1;fontStyle=0;childLayout=stackLayout;horizontal=1;startSize=26;horizontalStack=0;resizeParent=1;resizeLast=0;collapsible=1;marginBottom=0;swimlaneFillColor=#ffffff;rounded=0;shadow=0;comic=0;labelBackgroundColor=none;strokeWidth=1;fontFamily=Lucida Console;fontSize=10;align=center;fillColor=#f5f5f5;strokeColor=#666666;swimlaneLine=1;glass=0;fontColor=#333333;" parent="1" vertex="1">
          <mxGeometry y="280" width="160" height="400" as="geometry">
            <mxRectangle y="280" width="160" height="30" as="alternateBounds" />
          </mxGeometry>
        </mxCell>
        <mxCell id="JgbcZ7sCWgasm3MyN25L-12" value="id: string" style="text;strokeColor=none;fillColor=none;align=left;verticalAlign=top;spacingLeft=4;spacingRight=4;overflow=hidden;rotatable=0;points=[[0,0.5],[1,0.5]];portConstraint=eastwest;whiteSpace=wrap;html=1;fontFamily=Lucida Console;fontSize=10;labelBackgroundColor=none;" vertex="1" parent="oHPK-ylT67RkrpIPKsx3-16">
          <mxGeometry y="26" width="160" height="20" as="geometry" />
        </mxCell>
        <mxCell id="JgbcZ7sCWgasm3MyN25L-8" value="text: string" style="text;strokeColor=none;fillColor=none;align=left;verticalAlign=top;spacingLeft=4;spacingRight=4;overflow=hidden;rotatable=0;points=[[0,0.5],[1,0.5]];portConstraint=eastwest;whiteSpace=wrap;html=1;fontFamily=Lucida Console;fontSize=10;labelBackgroundColor=none;" vertex="1" parent="oHPK-ylT67RkrpIPKsx3-16">
          <mxGeometry y="46" width="160" height="20" as="geometry" />
        </mxCell>
        <mxCell id="JgbcZ7sCWgasm3MyN25L-21" value="promptParam: string" style="text;strokeColor=none;fillColor=none;align=left;verticalAlign=top;spacingLeft=4;spacingRight=4;overflow=hidden;rotatable=0;points=[[0,0.5],[1,0.5]];portConstraint=eastwest;whiteSpace=wrap;html=1;fontFamily=Lucida Console;fontSize=10;labelBackgroundColor=none;" vertex="1" parent="oHPK-ylT67RkrpIPKsx3-16">
          <mxGeometry y="66" width="160" height="20" as="geometry" />
        </mxCell>
        <mxCell id="JgbcZ7sCWgasm3MyN25L-22" value="datetime: datetime" style="text;strokeColor=none;fillColor=none;align=left;verticalAlign=top;spacingLeft=4;spacingRight=4;overflow=hidden;rotatable=0;points=[[0,0.5],[1,0.5]];portConstraint=eastwest;whiteSpace=wrap;html=1;fontFamily=Lucida Console;fontSize=10;labelBackgroundColor=none;" vertex="1" parent="oHPK-ylT67RkrpIPKsx3-16">
          <mxGeometry y="86" width="160" height="20" as="geometry" />
        </mxCell>
        <mxCell id="JgbcZ7sCWgasm3MyN25L-16" value="choices/" style="text;strokeColor=none;fillColor=none;align=left;verticalAlign=bottom;spacingLeft=4;spacingRight=4;overflow=hidden;rotatable=0;points=[[0,0.5],[1,0.5]];portConstraint=eastwest;whiteSpace=wrap;html=1;fontFamily=Lucida Console;fontSize=10;labelBackgroundColor=none;" vertex="1" parent="oHPK-ylT67RkrpIPKsx3-16">
          <mxGeometry y="106" width="160" height="30" as="geometry" />
        </mxCell>
        <mxCell id="JgbcZ7sCWgasm3MyN25L-17" value="id: string" style="text;strokeColor=none;fillColor=none;align=left;verticalAlign=top;spacingLeft=14;spacingRight=4;overflow=hidden;rotatable=0;points=[[0,0.5],[1,0.5]];portConstraint=eastwest;whiteSpace=wrap;html=1;fontFamily=Lucida Console;fontSize=10;labelBackgroundColor=none;" vertex="1" parent="oHPK-ylT67RkrpIPKsx3-16">
          <mxGeometry y="136" width="160" height="20" as="geometry" />
        </mxCell>
        <mxCell id="JgbcZ7sCWgasm3MyN25L-19" value="text: string" style="text;strokeColor=none;fillColor=none;align=left;verticalAlign=top;spacingLeft=14;spacingRight=4;overflow=hidden;rotatable=0;points=[[0,0.5],[1,0.5]];portConstraint=eastwest;whiteSpace=wrap;html=1;fontFamily=Lucida Console;fontSize=10;labelBackgroundColor=none;" vertex="1" parent="oHPK-ylT67RkrpIPKsx3-16">
          <mxGeometry y="156" width="160" height="20" as="geometry" />
        </mxCell>
        <mxCell id="JgbcZ7sCWgasm3MyN25L-18" value="prompt: string" style="text;strokeColor=none;fillColor=none;align=left;verticalAlign=top;spacingLeft=14;spacingRight=4;overflow=hidden;rotatable=0;points=[[0,0.5],[1,0.5]];portConstraint=eastwest;whiteSpace=wrap;html=1;fontFamily=Lucida Console;fontSize=10;labelBackgroundColor=none;" vertex="1" parent="oHPK-ylT67RkrpIPKsx3-16">
          <mxGeometry y="176" width="160" height="20" as="geometry" />
        </mxCell>
        <mxCell id="JgbcZ7sCWgasm3MyN25L-20" value="image: bytes" style="text;strokeColor=none;fillColor=none;align=left;verticalAlign=top;spacingLeft=14;spacingRight=4;overflow=hidden;rotatable=0;points=[[0,0.5],[1,0.5]];portConstraint=eastwest;whiteSpace=wrap;html=1;fontFamily=Lucida Console;fontSize=10;labelBackgroundColor=none;" vertex="1" parent="oHPK-ylT67RkrpIPKsx3-16">
          <mxGeometry y="196" width="160" height="20" as="geometry" />
        </mxCell>
        <mxCell id="oHPK-ylT67RkrpIPKsx3-22" value="story__forms_landing" style="swimlane;html=1;fontStyle=0;childLayout=stackLayout;horizontal=1;startSize=26;horizontalStack=0;resizeParent=1;resizeLast=0;collapsible=1;marginBottom=0;swimlaneFillColor=#ffffff;rounded=0;shadow=0;comic=0;labelBackgroundColor=none;strokeWidth=1;fontFamily=Lucida Console;fontSize=10;align=center;fillColor=#f5f5f5;fontColor=#333333;strokeColor=#666666;swimlaneLine=1;glass=0;" parent="1" vertex="1">
          <mxGeometry x="320" y="280" width="160" height="400" as="geometry">
            <mxRectangle x="320" y="280" width="160" height="30" as="alternateBounds" />
          </mxGeometry>
        </mxCell>
        <mxCell id="JgbcZ7sCWgasm3MyN25L-27" value="id: string" style="text;strokeColor=none;fillColor=none;align=left;verticalAlign=top;spacingLeft=4;spacingRight=4;overflow=hidden;rotatable=0;points=[[0,0.5],[1,0.5]];portConstraint=eastwest;whiteSpace=wrap;html=1;fontFamily=Lucida Console;fontSize=10;labelBackgroundColor=none;" vertex="1" parent="oHPK-ylT67RkrpIPKsx3-22">
          <mxGeometry y="26" width="160" height="20" as="geometry" />
        </mxCell>
        <mxCell id="JgbcZ7sCWgasm3MyN25L-37" value="canBeServed: bool" style="text;strokeColor=none;fillColor=none;align=left;verticalAlign=top;spacingLeft=4;spacingRight=4;overflow=hidden;rotatable=0;points=[[0,0.5],[1,0.5]];portConstraint=eastwest;whiteSpace=wrap;html=1;fontFamily=Lucida Console;fontSize=10;labelBackgroundColor=none;" vertex="1" parent="oHPK-ylT67RkrpIPKsx3-22">
          <mxGeometry y="46" width="160" height="20" as="geometry" />
        </mxCell>
        <mxCell id="JgbcZ7sCWgasm3MyN25L-28" value="start: datetime" style="text;strokeColor=none;fillColor=none;align=left;verticalAlign=top;spacingLeft=4;spacingRight=4;overflow=hidden;rotatable=0;points=[[0,0.5],[1,0.5]];portConstraint=eastwest;whiteSpace=wrap;html=1;fontFamily=Lucida Console;fontSize=10;labelBackgroundColor=none;" vertex="1" parent="oHPK-ylT67RkrpIPKsx3-22">
          <mxGeometry y="66" width="160" height="20" as="geometry" />
        </mxCell>
        <mxCell id="JgbcZ7sCWgasm3MyN25L-33" value="numQuestions: int" style="text;strokeColor=none;fillColor=none;align=left;verticalAlign=top;spacingLeft=4;spacingRight=4;overflow=hidden;rotatable=0;points=[[0,0.5],[1,0.5]];portConstraint=eastwest;whiteSpace=wrap;html=1;fontFamily=Lucida Console;fontSize=10;labelBackgroundColor=none;" vertex="1" parent="oHPK-ylT67RkrpIPKsx3-22">
          <mxGeometry y="86" width="160" height="20" as="geometry" />
        </mxCell>
        <mxCell id="JgbcZ7sCWgasm3MyN25L-29" value="question0: &amp;lt;questionId&amp;gt;" style="text;strokeColor=none;fillColor=none;align=left;verticalAlign=top;spacingLeft=4;spacingRight=4;overflow=hidden;rotatable=0;points=[[0,0.5],[1,0.5]];portConstraint=eastwest;whiteSpace=wrap;html=1;fontFamily=Lucida Console;fontSize=10;labelBackgroundColor=none;" vertex="1" parent="oHPK-ylT67RkrpIPKsx3-22">
          <mxGeometry y="106" width="160" height="20" as="geometry" />
        </mxCell>
        <mxCell id="JgbcZ7sCWgasm3MyN25L-30" value="question0Choices: &amp;lt;choiceId&amp;gt;[]" style="text;strokeColor=none;fillColor=none;align=left;verticalAlign=top;spacingLeft=4;spacingRight=4;overflow=hidden;rotatable=0;points=[[0,0.5],[1,0.5]];portConstraint=eastwest;whiteSpace=wrap;html=1;fontFamily=Lucida Console;fontSize=10;labelBackgroundColor=none;" vertex="1" parent="oHPK-ylT67RkrpIPKsx3-22">
          <mxGeometry y="126" width="160" height="40" as="geometry" />
        </mxCell>
        <mxCell id="JgbcZ7sCWgasm3MyN25L-31" value="question1: &amp;lt;questionId&amp;gt;" style="text;strokeColor=none;fillColor=none;align=left;verticalAlign=top;spacingLeft=4;spacingRight=4;overflow=hidden;rotatable=0;points=[[0,0.5],[1,0.5]];portConstraint=eastwest;whiteSpace=wrap;html=1;fontFamily=Lucida Console;fontSize=10;labelBackgroundColor=none;" vertex="1" parent="oHPK-ylT67RkrpIPKsx3-22">
          <mxGeometry y="166" width="160" height="20" as="geometry" />
        </mxCell>
        <mxCell id="JgbcZ7sCWgasm3MyN25L-32" value="question1Choices: &amp;lt;choiceId&amp;gt;[]" style="text;strokeColor=none;fillColor=none;align=left;verticalAlign=top;spacingLeft=4;spacingRight=4;overflow=hidden;rotatable=0;points=[[0,0.5],[1,0.5]];portConstraint=eastwest;whiteSpace=wrap;html=1;fontFamily=Lucida Console;fontSize=10;labelBackgroundColor=none;" vertex="1" parent="oHPK-ylT67RkrpIPKsx3-22">
          <mxGeometry y="186" width="160" height="40" as="geometry" />
        </mxCell>
        <mxCell id="JgbcZ7sCWgasm3MyN25L-92" value="question..." style="text;strokeColor=none;fillColor=none;align=left;verticalAlign=top;spacingLeft=4;spacingRight=4;overflow=hidden;rotatable=0;points=[[0,0.5],[1,0.5]];portConstraint=eastwest;whiteSpace=wrap;html=1;fontFamily=Lucida Console;fontSize=10;labelBackgroundColor=none;" vertex="1" parent="oHPK-ylT67RkrpIPKsx3-22">
          <mxGeometry y="226" width="160" height="20" as="geometry" />
        </mxCell>
        <mxCell id="oHPK-ylT67RkrpIPKsx3-23" value="story__cache_landing" style="swimlane;html=1;fontStyle=0;childLayout=stackLayout;horizontal=1;startSize=26;horizontalStack=0;resizeParent=1;resizeLast=0;collapsible=1;marginBottom=0;swimlaneFillColor=#ffffff;rounded=0;shadow=0;comic=0;labelBackgroundColor=none;strokeWidth=1;fontFamily=Lucida Console;fontSize=10;align=center;fillColor=#f5f5f5;fontColor=#333333;strokeColor=#666666;swimlaneLine=1;glass=0;" parent="1" vertex="1">
          <mxGeometry x="640" y="280" width="160" height="400" as="geometry">
            <mxRectangle x="640" y="280" width="160" height="30" as="alternateBounds" />
          </mxGeometry>
        </mxCell>
        <mxCell id="JgbcZ7sCWgasm3MyN25L-45" value="id: string" style="text;strokeColor=none;fillColor=none;align=left;verticalAlign=top;spacingLeft=4;spacingRight=4;overflow=hidden;rotatable=0;points=[[0,0.5],[1,0.5]];portConstraint=eastwest;whiteSpace=wrap;html=1;fontFamily=Lucida Console;fontSize=10;labelBackgroundColor=none;" vertex="1" parent="oHPK-ylT67RkrpIPKsx3-23">
          <mxGeometry y="26" width="160" height="20" as="geometry" />
        </mxCell>
        <mxCell id="JgbcZ7sCWgasm3MyN25L-46" value="status: string" style="text;strokeColor=none;fillColor=none;align=left;verticalAlign=top;spacingLeft=4;spacingRight=4;overflow=hidden;rotatable=0;points=[[0,0.5],[1,0.5]];portConstraint=eastwest;whiteSpace=wrap;html=1;fontFamily=Lucida Console;fontSize=10;labelBackgroundColor=none;" vertex="1" parent="oHPK-ylT67RkrpIPKsx3-23">
          <mxGeometry y="46" width="160" height="20" as="geometry" />
        </mxCell>
        <mxCell id="JgbcZ7sCWgasm3MyN25L-47" value="title: string" style="text;strokeColor=none;fillColor=none;align=left;verticalAlign=top;spacingLeft=4;spacingRight=4;overflow=hidden;rotatable=0;points=[[0,0.5],[1,0.5]];portConstraint=eastwest;whiteSpace=wrap;html=1;fontFamily=Lucida Console;fontSize=10;labelBackgroundColor=none;" vertex="1" parent="oHPK-ylT67RkrpIPKsx3-23">
          <mxGeometry y="66" width="160" height="20" as="geometry" />
        </mxCell>
        <mxCell id="JgbcZ7sCWgasm3MyN25L-48" value="request: JSON" style="text;strokeColor=none;fillColor=none;align=left;verticalAlign=top;spacingLeft=4;spacingRight=4;overflow=hidden;rotatable=0;points=[[0,0.5],[1,0.5]];portConstraint=eastwest;whiteSpace=wrap;html=1;fontFamily=Lucida Console;fontSize=10;labelBackgroundColor=none;" vertex="1" parent="oHPK-ylT67RkrpIPKsx3-23">
          <mxGeometry y="86" width="160" height="20" as="geometry" />
        </mxCell>
        <mxCell id="JgbcZ7sCWgasm3MyN25L-49" value="parts: &amp;lt;partId&amp;gt;[]" style="text;strokeColor=none;fillColor=none;align=left;verticalAlign=top;spacingLeft=4;spacingRight=4;overflow=hidden;rotatable=0;points=[[0,0.5],[1,0.5]];portConstraint=eastwest;whiteSpace=wrap;html=1;fontFamily=Lucida Console;fontSize=10;labelBackgroundColor=none;" vertex="1" parent="oHPK-ylT67RkrpIPKsx3-23">
          <mxGeometry y="106" width="160" height="20" as="geometry" />
        </mxCell>
        <mxCell id="JgbcZ7sCWgasm3MyN25L-50" value="images/" style="text;strokeColor=none;fillColor=none;align=left;verticalAlign=bottom;spacingLeft=4;spacingRight=4;overflow=hidden;rotatable=0;points=[[0,0.5],[1,0.5]];portConstraint=eastwest;whiteSpace=wrap;html=1;fontFamily=Lucida Console;fontSize=10;labelBackgroundColor=none;" vertex="1" parent="oHPK-ylT67RkrpIPKsx3-23">
          <mxGeometry y="126" width="160" height="30" as="geometry" />
        </mxCell>
        <mxCell id="JgbcZ7sCWgasm3MyN25L-51" value="id: string" style="text;strokeColor=none;fillColor=none;align=left;verticalAlign=top;spacingLeft=14;spacingRight=4;overflow=hidden;rotatable=0;points=[[0,0.5],[1,0.5]];portConstraint=eastwest;whiteSpace=wrap;html=1;fontFamily=Lucida Console;fontSize=10;labelBackgroundColor=none;" vertex="1" parent="oHPK-ylT67RkrpIPKsx3-23">
          <mxGeometry y="156" width="160" height="20" as="geometry" />
        </mxCell>
        <mxCell id="JgbcZ7sCWgasm3MyN25L-52" value="data: bytes" style="text;strokeColor=none;fillColor=none;align=left;verticalAlign=top;spacingLeft=14;spacingRight=4;overflow=hidden;rotatable=0;points=[[0,0.5],[1,0.5]];portConstraint=eastwest;whiteSpace=wrap;html=1;fontFamily=Lucida Console;fontSize=10;labelBackgroundColor=none;" vertex="1" parent="oHPK-ylT67RkrpIPKsx3-23">
          <mxGeometry y="176" width="160" height="20" as="geometry" />
        </mxCell>
        <mxCell id="JgbcZ7sCWgasm3MyN25L-53" value="parts/" style="text;strokeColor=none;fillColor=none;align=left;verticalAlign=bottom;spacingLeft=4;spacingRight=4;overflow=hidden;rotatable=0;points=[[0,0.5],[1,0.5]];portConstraint=eastwest;whiteSpace=wrap;html=1;fontFamily=Lucida Console;fontSize=10;labelBackgroundColor=none;" vertex="1" parent="oHPK-ylT67RkrpIPKsx3-23">
          <mxGeometry y="196" width="160" height="30" as="geometry" />
        </mxCell>
        <mxCell id="JgbcZ7sCWgasm3MyN25L-54" value="id: string" style="text;strokeColor=none;fillColor=none;align=left;verticalAlign=top;spacingLeft=14;spacingRight=4;overflow=hidden;rotatable=0;points=[[0,0.5],[1,0.5]];portConstraint=eastwest;whiteSpace=wrap;html=1;fontFamily=Lucida Console;fontSize=10;labelBackgroundColor=none;" vertex="1" parent="oHPK-ylT67RkrpIPKsx3-23">
          <mxGeometry y="226" width="160" height="20" as="geometry" />
        </mxCell>
        <mxCell id="JgbcZ7sCWgasm3MyN25L-55" value="text: string" style="text;strokeColor=none;fillColor=none;align=left;verticalAlign=top;spacingLeft=14;spacingRight=4;overflow=hidden;rotatable=0;points=[[0,0.5],[1,0.5]];portConstraint=eastwest;whiteSpace=wrap;html=1;fontFamily=Lucida Console;fontSize=10;labelBackgroundColor=none;" vertex="1" parent="oHPK-ylT67RkrpIPKsx3-23">
          <mxGeometry y="246" width="160" height="20" as="geometry" />
        </mxCell>
        <mxCell id="JgbcZ7sCWgasm3MyN25L-56" value="image: &amp;lt;imageId&amp;gt;?" style="text;strokeColor=none;fillColor=none;align=left;verticalAlign=top;spacingLeft=14;spacingRight=4;overflow=hidden;rotatable=0;points=[[0,0.5],[1,0.5]];portConstraint=eastwest;whiteSpace=wrap;html=1;fontFamily=Lucida Console;fontSize=10;labelBackgroundColor=none;" vertex="1" parent="oHPK-ylT67RkrpIPKsx3-23">
          <mxGeometry y="266" width="160" height="20" as="geometry" />
        </mxCell>
        <mxCell id="JgbcZ7sCWgasm3MyN25L-58" value="textPrompt: string" style="text;strokeColor=none;fillColor=none;align=left;verticalAlign=top;spacingLeft=14;spacingRight=4;overflow=hidden;rotatable=0;points=[[0,0.5],[1,0.5]];portConstraint=eastwest;whiteSpace=wrap;html=1;fontFamily=Lucida Console;fontSize=10;labelBackgroundColor=none;" vertex="1" parent="oHPK-ylT67RkrpIPKsx3-23">
          <mxGeometry y="286" width="160" height="20" as="geometry" />
        </mxCell>
        <mxCell id="JgbcZ7sCWgasm3MyN25L-59" value="imagePrompt: string?" style="text;strokeColor=none;fillColor=none;align=left;verticalAlign=top;spacingLeft=14;spacingRight=4;overflow=hidden;rotatable=0;points=[[0,0.5],[1,0.5]];portConstraint=eastwest;whiteSpace=wrap;html=1;fontFamily=Lucida Console;fontSize=10;labelBackgroundColor=none;" vertex="1" parent="oHPK-ylT67RkrpIPKsx3-23">
          <mxGeometry y="306" width="160" height="20" as="geometry" />
        </mxCell>
        <mxCell id="JgbcZ7sCWgasm3MyN25L-60" value="imagePromptPrompt: string?" style="text;strokeColor=none;fillColor=none;align=left;verticalAlign=top;spacingLeft=14;spacingRight=4;overflow=hidden;rotatable=0;points=[[0,0.5],[1,0.5]];portConstraint=eastwest;whiteSpace=wrap;html=1;fontFamily=Lucida Console;fontSize=10;labelBackgroundColor=none;" vertex="1" parent="oHPK-ylT67RkrpIPKsx3-23">
          <mxGeometry y="326" width="160" height="30" as="geometry" />
        </mxCell>
        <mxCell id="oHPK-ylT67RkrpIPKsx3-24" value="story__forms_serving" style="swimlane;html=1;fontStyle=0;childLayout=stackLayout;horizontal=1;startSize=26;horizontalStack=0;resizeParent=1;resizeLast=0;collapsible=1;marginBottom=0;swimlaneFillColor=#ffffff;rounded=0;shadow=0;comic=0;labelBackgroundColor=none;strokeWidth=1;fontFamily=Lucida Console;fontSize=10;align=center;fillColor=#f8cecc;strokeColor=#b85450;swimlaneLine=1;glass=0;" parent="1" vertex="1">
          <mxGeometry x="320" y="800" width="160" height="360" as="geometry">
            <mxRectangle x="320" y="520" width="160" height="30" as="alternateBounds" />
          </mxGeometry>
        </mxCell>
        <mxCell id="JgbcZ7sCWgasm3MyN25L-39" value="id: string" style="text;strokeColor=none;fillColor=none;align=left;verticalAlign=top;spacingLeft=4;spacingRight=4;overflow=hidden;rotatable=0;points=[[0,0.5],[1,0.5]];portConstraint=eastwest;whiteSpace=wrap;html=1;fontFamily=Lucida Console;fontSize=10;labelBackgroundColor=none;" vertex="1" parent="oHPK-ylT67RkrpIPKsx3-24">
          <mxGeometry y="26" width="160" height="20" as="geometry" />
        </mxCell>
        <mxCell id="JgbcZ7sCWgasm3MyN25L-40" value="numQuestions: int" style="text;strokeColor=none;fillColor=none;align=left;verticalAlign=top;spacingLeft=4;spacingRight=4;overflow=hidden;rotatable=0;points=[[0,0.5],[1,0.5]];portConstraint=eastwest;whiteSpace=wrap;html=1;fontFamily=Lucida Console;fontSize=10;labelBackgroundColor=none;" vertex="1" parent="oHPK-ylT67RkrpIPKsx3-24">
          <mxGeometry y="46" width="160" height="20" as="geometry" />
        </mxCell>
        <mxCell id="JgbcZ7sCWgasm3MyN25L-41" value="question0: &amp;lt;questionId&amp;gt;" style="text;strokeColor=none;fillColor=none;align=left;verticalAlign=top;spacingLeft=4;spacingRight=4;overflow=hidden;rotatable=0;points=[[0,0.5],[1,0.5]];portConstraint=eastwest;whiteSpace=wrap;html=1;fontFamily=Lucida Console;fontSize=10;labelBackgroundColor=none;" vertex="1" parent="oHPK-ylT67RkrpIPKsx3-24">
          <mxGeometry y="66" width="160" height="20" as="geometry" />
        </mxCell>
        <mxCell id="JgbcZ7sCWgasm3MyN25L-42" value="question0Choices: &amp;lt;choiceId&amp;gt;[]" style="text;strokeColor=none;fillColor=none;align=left;verticalAlign=top;spacingLeft=4;spacingRight=4;overflow=hidden;rotatable=0;points=[[0,0.5],[1,0.5]];portConstraint=eastwest;whiteSpace=wrap;html=1;fontFamily=Lucida Console;fontSize=10;labelBackgroundColor=none;" vertex="1" parent="oHPK-ylT67RkrpIPKsx3-24">
          <mxGeometry y="86" width="160" height="40" as="geometry" />
        </mxCell>
        <mxCell id="JgbcZ7sCWgasm3MyN25L-43" value="question1: &amp;lt;questionId&amp;gt;" style="text;strokeColor=none;fillColor=none;align=left;verticalAlign=top;spacingLeft=4;spacingRight=4;overflow=hidden;rotatable=0;points=[[0,0.5],[1,0.5]];portConstraint=eastwest;whiteSpace=wrap;html=1;fontFamily=Lucida Console;fontSize=10;labelBackgroundColor=none;" vertex="1" parent="oHPK-ylT67RkrpIPKsx3-24">
          <mxGeometry y="126" width="160" height="20" as="geometry" />
        </mxCell>
        <mxCell id="JgbcZ7sCWgasm3MyN25L-44" value="question1Choices: &amp;lt;choiceId&amp;gt;[]" style="text;strokeColor=none;fillColor=none;align=left;verticalAlign=top;spacingLeft=4;spacingRight=4;overflow=hidden;rotatable=0;points=[[0,0.5],[1,0.5]];portConstraint=eastwest;whiteSpace=wrap;html=1;fontFamily=Lucida Console;fontSize=10;labelBackgroundColor=none;" vertex="1" parent="oHPK-ylT67RkrpIPKsx3-24">
          <mxGeometry y="146" width="160" height="40" as="geometry" />
        </mxCell>
        <mxCell id="JgbcZ7sCWgasm3MyN25L-93" value="question..." style="text;strokeColor=none;fillColor=none;align=left;verticalAlign=top;spacingLeft=4;spacingRight=4;overflow=hidden;rotatable=0;points=[[0,0.5],[1,0.5]];portConstraint=eastwest;whiteSpace=wrap;html=1;fontFamily=Lucida Console;fontSize=10;labelBackgroundColor=none;" vertex="1" parent="oHPK-ylT67RkrpIPKsx3-24">
          <mxGeometry y="186" width="160" height="20" as="geometry" />
        </mxCell>
        <mxCell id="JgbcZ7sCWgasm3MyN25L-88" value="&lt;font style=&quot;font-size: 10px;&quot; face=&quot;Lucida Console&quot;&gt;(5) createStory&lt;br style=&quot;font-size: 10px;&quot;&gt;&lt;/font&gt;" style="edgeStyle=orthogonalEdgeStyle;rounded=0;orthogonalLoop=1;jettySize=auto;html=1;exitX=1;exitY=0.75;exitDx=0;exitDy=0;entryX=0;entryY=0.75;entryDx=0;entryDy=0;fontSize=10;fontFamily=Lucida Console;strokeColor=#d6b656;endFill=1;strokeWidth=3;fillColor=#fff2cc;" edge="1" parent="1" source="oHPK-ylT67RkrpIPKsx3-25" target="oHPK-ylT67RkrpIPKsx3-28">
          <mxGeometry y="20" relative="1" as="geometry">
            <mxPoint as="offset" />
          </mxGeometry>
        </mxCell>
        <mxCell id="oHPK-ylT67RkrpIPKsx3-25" value="story__cache_serving" style="swimlane;html=1;fontStyle=0;childLayout=stackLayout;horizontal=1;startSize=26;horizontalStack=0;resizeParent=1;resizeLast=0;collapsible=1;marginBottom=0;swimlaneFillColor=#ffffff;rounded=0;shadow=0;comic=0;labelBackgroundColor=none;strokeWidth=1;fontFamily=Lucida Console;fontSize=10;align=center;fillColor=#f5f5f5;strokeColor=#666666;swimlaneLine=1;glass=0;fontColor=#333333;" parent="1" vertex="1">
          <mxGeometry x="640" y="800" width="160" height="360" as="geometry">
            <mxRectangle x="640" y="520" width="160" height="30" as="alternateBounds" />
          </mxGeometry>
        </mxCell>
        <mxCell id="JgbcZ7sCWgasm3MyN25L-61" value="id: string" style="text;strokeColor=none;fillColor=none;align=left;verticalAlign=top;spacingLeft=4;spacingRight=4;overflow=hidden;rotatable=0;points=[[0,0.5],[1,0.5]];portConstraint=eastwest;whiteSpace=wrap;html=1;fontFamily=Lucida Console;fontSize=10;labelBackgroundColor=none;connectable=0;" vertex="1" parent="oHPK-ylT67RkrpIPKsx3-25">
          <mxGeometry y="26" width="160" height="20" as="geometry" />
        </mxCell>
        <mxCell id="JgbcZ7sCWgasm3MyN25L-62" value="title: string" style="text;strokeColor=none;fillColor=none;align=left;verticalAlign=top;spacingLeft=4;spacingRight=4;overflow=hidden;rotatable=0;points=[[0,0.5],[1,0.5]];portConstraint=eastwest;whiteSpace=wrap;html=1;fontFamily=Lucida Console;fontSize=10;labelBackgroundColor=none;connectable=0;" vertex="1" parent="oHPK-ylT67RkrpIPKsx3-25">
          <mxGeometry y="46" width="160" height="20" as="geometry" />
        </mxCell>
        <mxCell id="JgbcZ7sCWgasm3MyN25L-63" value="request: JSON" style="text;strokeColor=none;fillColor=none;align=left;verticalAlign=top;spacingLeft=4;spacingRight=4;overflow=hidden;rotatable=0;points=[[0,0.5],[1,0.5]];portConstraint=eastwest;whiteSpace=wrap;html=1;fontFamily=Lucida Console;fontSize=10;labelBackgroundColor=none;connectable=0;" vertex="1" parent="oHPK-ylT67RkrpIPKsx3-25">
          <mxGeometry y="66" width="160" height="20" as="geometry" />
        </mxCell>
        <mxCell id="JgbcZ7sCWgasm3MyN25L-64" value="parts: &amp;lt;partId&amp;gt;[]" style="text;strokeColor=none;fillColor=none;align=left;verticalAlign=top;spacingLeft=4;spacingRight=4;overflow=hidden;rotatable=0;points=[[0,0.5],[1,0.5]];portConstraint=eastwest;whiteSpace=wrap;html=1;fontFamily=Lucida Console;fontSize=10;labelBackgroundColor=none;connectable=0;" vertex="1" parent="oHPK-ylT67RkrpIPKsx3-25">
          <mxGeometry y="86" width="160" height="20" as="geometry" />
        </mxCell>
        <mxCell id="JgbcZ7sCWgasm3MyN25L-65" value="images/" style="text;strokeColor=none;fillColor=none;align=left;verticalAlign=bottom;spacingLeft=4;spacingRight=4;overflow=hidden;rotatable=0;points=[[0,0.5],[1,0.5]];portConstraint=eastwest;whiteSpace=wrap;html=1;fontFamily=Lucida Console;fontSize=10;labelBackgroundColor=none;connectable=0;" vertex="1" parent="oHPK-ylT67RkrpIPKsx3-25">
          <mxGeometry y="106" width="160" height="30" as="geometry" />
        </mxCell>
        <mxCell id="JgbcZ7sCWgasm3MyN25L-66" value="id: string" style="text;strokeColor=none;fillColor=none;align=left;verticalAlign=top;spacingLeft=14;spacingRight=4;overflow=hidden;rotatable=0;points=[[0,0.5],[1,0.5]];portConstraint=eastwest;whiteSpace=wrap;html=1;fontFamily=Lucida Console;fontSize=10;labelBackgroundColor=none;connectable=0;" vertex="1" parent="oHPK-ylT67RkrpIPKsx3-25">
          <mxGeometry y="136" width="160" height="20" as="geometry" />
        </mxCell>
        <mxCell id="JgbcZ7sCWgasm3MyN25L-67" value="data: bytes" style="text;strokeColor=none;fillColor=none;align=left;verticalAlign=top;spacingLeft=14;spacingRight=4;overflow=hidden;rotatable=0;points=[[0,0.5],[1,0.5]];portConstraint=eastwest;whiteSpace=wrap;html=1;fontFamily=Lucida Console;fontSize=10;labelBackgroundColor=none;connectable=0;" vertex="1" parent="oHPK-ylT67RkrpIPKsx3-25">
          <mxGeometry y="156" width="160" height="20" as="geometry" />
        </mxCell>
        <mxCell id="JgbcZ7sCWgasm3MyN25L-68" value="parts/" style="text;strokeColor=none;fillColor=none;align=left;verticalAlign=bottom;spacingLeft=4;spacingRight=4;overflow=hidden;rotatable=0;points=[[0,0.5],[1,0.5]];portConstraint=eastwest;whiteSpace=wrap;html=1;fontFamily=Lucida Console;fontSize=10;labelBackgroundColor=none;connectable=0;" vertex="1" parent="oHPK-ylT67RkrpIPKsx3-25">
          <mxGeometry y="176" width="160" height="30" as="geometry" />
        </mxCell>
        <mxCell id="JgbcZ7sCWgasm3MyN25L-69" value="id: string" style="text;strokeColor=none;fillColor=none;align=left;verticalAlign=top;spacingLeft=14;spacingRight=4;overflow=hidden;rotatable=0;points=[[0,0.5],[1,0.5]];portConstraint=eastwest;whiteSpace=wrap;html=1;fontFamily=Lucida Console;fontSize=10;labelBackgroundColor=none;connectable=0;" vertex="1" parent="oHPK-ylT67RkrpIPKsx3-25">
          <mxGeometry y="206" width="160" height="20" as="geometry" />
        </mxCell>
        <mxCell id="JgbcZ7sCWgasm3MyN25L-70" value="text: string" style="text;strokeColor=none;fillColor=none;align=left;verticalAlign=top;spacingLeft=14;spacingRight=4;overflow=hidden;rotatable=0;points=[[0,0.5],[1,0.5]];portConstraint=eastwest;whiteSpace=wrap;html=1;fontFamily=Lucida Console;fontSize=10;labelBackgroundColor=none;connectable=0;" vertex="1" parent="oHPK-ylT67RkrpIPKsx3-25">
          <mxGeometry y="226" width="160" height="20" as="geometry" />
        </mxCell>
        <mxCell id="JgbcZ7sCWgasm3MyN25L-71" value="image: &amp;lt;imageId&amp;gt;?" style="text;strokeColor=none;fillColor=none;align=left;verticalAlign=top;spacingLeft=14;spacingRight=4;overflow=hidden;rotatable=0;points=[[0,0.5],[1,0.5]];portConstraint=eastwest;whiteSpace=wrap;html=1;fontFamily=Lucida Console;fontSize=10;labelBackgroundColor=none;connectable=0;" vertex="1" parent="oHPK-ylT67RkrpIPKsx3-25">
          <mxGeometry y="246" width="160" height="20" as="geometry" />
        </mxCell>
        <mxCell id="JgbcZ7sCWgasm3MyN25L-72" value="textPrompt: string" style="text;strokeColor=none;fillColor=none;align=left;verticalAlign=top;spacingLeft=14;spacingRight=4;overflow=hidden;rotatable=0;points=[[0,0.5],[1,0.5]];portConstraint=eastwest;whiteSpace=wrap;html=1;fontFamily=Lucida Console;fontSize=10;labelBackgroundColor=none;connectable=0;" vertex="1" parent="oHPK-ylT67RkrpIPKsx3-25">
          <mxGeometry y="266" width="160" height="20" as="geometry" />
        </mxCell>
        <mxCell id="JgbcZ7sCWgasm3MyN25L-74" value="imagePromptPrompt: string?" style="text;strokeColor=none;fillColor=none;align=left;verticalAlign=top;spacingLeft=14;spacingRight=4;overflow=hidden;rotatable=0;points=[[0,0.5],[1,0.5]];portConstraint=eastwest;whiteSpace=wrap;html=1;fontFamily=Lucida Console;fontSize=10;labelBackgroundColor=none;connectable=0;" vertex="1" parent="oHPK-ylT67RkrpIPKsx3-25">
          <mxGeometry y="286" width="160" height="30" as="geometry" />
        </mxCell>
        <mxCell id="JgbcZ7sCWgasm3MyN25L-73" value="imagePrompt: string?" style="text;strokeColor=none;fillColor=none;align=left;verticalAlign=top;spacingLeft=14;spacingRight=4;overflow=hidden;rotatable=0;points=[[0,0.5],[1,0.5]];portConstraint=eastwest;whiteSpace=wrap;html=1;fontFamily=Lucida Console;fontSize=10;labelBackgroundColor=none;connectable=0;" vertex="1" parent="oHPK-ylT67RkrpIPKsx3-25">
          <mxGeometry y="316" width="160" height="20" as="geometry" />
        </mxCell>
        <mxCell id="oHPK-ylT67RkrpIPKsx3-26" value="Firestore public" style="html=1;whiteSpace=wrap;fontFamily=Lucida Console;labelBackgroundColor=none;fillColor=#f8cecc;strokeColor=#b85450;" parent="1" vertex="1">
          <mxGeometry y="80" width="160" height="40" as="geometry" />
        </mxCell>
        <mxCell id="oHPK-ylT67RkrpIPKsx3-27" value="Firestore private" style="html=1;whiteSpace=wrap;fontFamily=Lucida Console;labelBackgroundColor=none;fillColor=#f5f5f5;strokeColor=#666666;fontColor=#333333;" parent="1" vertex="1">
          <mxGeometry y="40" width="160" height="40" as="geometry" />
        </mxCell>
        <mxCell id="oHPK-ylT67RkrpIPKsx3-28" value="story__serving" style="swimlane;html=1;fontStyle=0;childLayout=stackLayout;horizontal=1;startSize=26;horizontalStack=0;resizeParent=1;resizeLast=0;collapsible=1;marginBottom=0;swimlaneFillColor=#ffffff;rounded=0;shadow=0;comic=0;labelBackgroundColor=none;strokeWidth=1;fontFamily=Lucida Console;fontSize=10;align=center;fillColor=#f8cecc;strokeColor=#b85450;swimlaneLine=1;glass=0;" parent="1" vertex="1">
          <mxGeometry x="960" y="800" width="160" height="360" as="geometry">
            <mxRectangle x="640" y="760" width="160" height="30" as="alternateBounds" />
          </mxGeometry>
        </mxCell>
        <mxCell id="JgbcZ7sCWgasm3MyN25L-75" value="id: string" style="text;strokeColor=none;fillColor=none;align=left;verticalAlign=top;spacingLeft=4;spacingRight=4;overflow=hidden;rotatable=0;points=[[0,0.5],[1,0.5]];portConstraint=eastwest;whiteSpace=wrap;html=1;fontFamily=Lucida Console;fontSize=10;labelBackgroundColor=none;connectable=0;allowArrows=1;" vertex="1" parent="oHPK-ylT67RkrpIPKsx3-28">
          <mxGeometry y="26" width="160" height="20" as="geometry" />
        </mxCell>
        <mxCell id="JgbcZ7sCWgasm3MyN25L-89" value="status: string" style="text;strokeColor=none;fillColor=none;align=left;verticalAlign=top;spacingLeft=4;spacingRight=4;overflow=hidden;rotatable=0;points=[[0,0.5],[1,0.5]];portConstraint=eastwest;whiteSpace=wrap;html=1;fontFamily=Lucida Console;fontSize=10;labelBackgroundColor=none;" vertex="1" parent="oHPK-ylT67RkrpIPKsx3-28">
          <mxGeometry y="46" width="160" height="20" as="geometry" />
        </mxCell>
        <mxCell id="JgbcZ7sCWgasm3MyN25L-90" value="source: string" style="text;strokeColor=none;fillColor=none;align=left;verticalAlign=top;spacingLeft=4;spacingRight=4;overflow=hidden;rotatable=0;points=[[0,0.5],[1,0.5]];portConstraint=eastwest;whiteSpace=wrap;html=1;fontFamily=Lucida Console;fontSize=10;labelBackgroundColor=none;" vertex="1" parent="oHPK-ylT67RkrpIPKsx3-28">
          <mxGeometry y="66" width="160" height="20" as="geometry" />
        </mxCell>
        <mxCell id="JgbcZ7sCWgasm3MyN25L-85" value="author: &amp;lt;userId&amp;gt;" style="text;strokeColor=none;fillColor=none;align=left;verticalAlign=top;spacingLeft=4;spacingRight=4;overflow=hidden;rotatable=0;points=[[0,0.5],[1,0.5]];portConstraint=eastwest;whiteSpace=wrap;html=1;fontFamily=Lucida Console;fontSize=10;labelBackgroundColor=none;connectable=0;allowArrows=1;" vertex="1" parent="oHPK-ylT67RkrpIPKsx3-28">
          <mxGeometry y="86" width="160" height="20" as="geometry" />
        </mxCell>
        <mxCell id="JgbcZ7sCWgasm3MyN25L-87" value="datetime: datetime" style="text;strokeColor=none;fillColor=none;align=left;verticalAlign=top;spacingLeft=4;spacingRight=4;overflow=hidden;rotatable=0;points=[[0,0.5],[1,0.5]];portConstraint=eastwest;whiteSpace=wrap;html=1;fontFamily=Lucida Console;fontSize=10;labelBackgroundColor=none;connectable=0;allowArrows=1;" vertex="1" parent="oHPK-ylT67RkrpIPKsx3-28">
          <mxGeometry y="106" width="160" height="20" as="geometry" />
        </mxCell>
        <mxCell id="JgbcZ7sCWgasm3MyN25L-86" value="isFavorite: bool" style="text;strokeColor=none;fillColor=none;align=left;verticalAlign=top;spacingLeft=4;spacingRight=4;overflow=hidden;rotatable=0;points=[[0,0.5],[1,0.5]];portConstraint=eastwest;whiteSpace=wrap;html=1;fontFamily=Lucida Console;fontSize=10;labelBackgroundColor=none;connectable=0;allowArrows=1;" vertex="1" parent="oHPK-ylT67RkrpIPKsx3-28">
          <mxGeometry y="126" width="160" height="20" as="geometry" />
        </mxCell>
        <mxCell id="JgbcZ7sCWgasm3MyN25L-76" value="title: string" style="text;strokeColor=none;fillColor=none;align=left;verticalAlign=top;spacingLeft=4;spacingRight=4;overflow=hidden;rotatable=0;points=[[0,0.5],[1,0.5]];portConstraint=eastwest;whiteSpace=wrap;html=1;fontFamily=Lucida Console;fontSize=10;labelBackgroundColor=none;connectable=0;allowArrows=1;" vertex="1" parent="oHPK-ylT67RkrpIPKsx3-28">
          <mxGeometry y="146" width="160" height="20" as="geometry" />
        </mxCell>
        <mxCell id="JgbcZ7sCWgasm3MyN25L-77" value="parts: &amp;lt;partId&amp;gt;[]" style="text;strokeColor=none;fillColor=none;align=left;verticalAlign=top;spacingLeft=4;spacingRight=4;overflow=hidden;rotatable=0;points=[[0,0.5],[1,0.5]];portConstraint=eastwest;whiteSpace=wrap;html=1;fontFamily=Lucida Console;fontSize=10;labelBackgroundColor=none;connectable=0;allowArrows=1;" vertex="1" parent="oHPK-ylT67RkrpIPKsx3-28">
          <mxGeometry y="166" width="160" height="20" as="geometry" />
        </mxCell>
        <mxCell id="JgbcZ7sCWgasm3MyN25L-84" value="images/" style="text;strokeColor=none;fillColor=none;align=left;verticalAlign=bottom;spacingLeft=4;spacingRight=4;overflow=hidden;rotatable=0;points=[[0,0.5],[1,0.5]];portConstraint=eastwest;whiteSpace=wrap;html=1;fontFamily=Lucida Console;fontSize=10;labelBackgroundColor=none;connectable=0;allowArrows=1;" vertex="1" parent="oHPK-ylT67RkrpIPKsx3-28">
          <mxGeometry y="186" width="160" height="30" as="geometry" />
        </mxCell>
        <mxCell id="JgbcZ7sCWgasm3MyN25L-81" value="id: string" style="text;strokeColor=none;fillColor=none;align=left;verticalAlign=top;spacingLeft=14;spacingRight=4;overflow=hidden;rotatable=0;points=[[0,0.5],[1,0.5]];portConstraint=eastwest;whiteSpace=wrap;html=1;fontFamily=Lucida Console;fontSize=10;labelBackgroundColor=none;connectable=0;allowArrows=1;" vertex="1" parent="oHPK-ylT67RkrpIPKsx3-28">
          <mxGeometry y="216" width="160" height="20" as="geometry" />
        </mxCell>
        <mxCell id="JgbcZ7sCWgasm3MyN25L-79" value="data: bytes" style="text;strokeColor=none;fillColor=none;align=left;verticalAlign=top;spacingLeft=14;spacingRight=4;overflow=hidden;rotatable=0;points=[[0,0.5],[1,0.5]];portConstraint=eastwest;whiteSpace=wrap;html=1;fontFamily=Lucida Console;fontSize=10;labelBackgroundColor=none;connectable=0;allowArrows=1;" vertex="1" parent="oHPK-ylT67RkrpIPKsx3-28">
          <mxGeometry y="236" width="160" height="20" as="geometry" />
        </mxCell>
        <mxCell id="JgbcZ7sCWgasm3MyN25L-80" value="parts/" style="text;strokeColor=none;fillColor=none;align=left;verticalAlign=bottom;spacingLeft=4;spacingRight=4;overflow=hidden;rotatable=0;points=[[0,0.5],[1,0.5]];portConstraint=eastwest;whiteSpace=wrap;html=1;fontFamily=Lucida Console;fontSize=10;labelBackgroundColor=none;connectable=0;allowArrows=1;" vertex="1" parent="oHPK-ylT67RkrpIPKsx3-28">
          <mxGeometry y="256" width="160" height="30" as="geometry" />
        </mxCell>
        <mxCell id="JgbcZ7sCWgasm3MyN25L-78" value="id: string" style="text;strokeColor=none;fillColor=none;align=left;verticalAlign=top;spacingLeft=14;spacingRight=4;overflow=hidden;rotatable=0;points=[[0,0.5],[1,0.5]];portConstraint=eastwest;whiteSpace=wrap;html=1;fontFamily=Lucida Console;fontSize=10;labelBackgroundColor=none;connectable=0;allowArrows=1;" vertex="1" parent="oHPK-ylT67RkrpIPKsx3-28">
          <mxGeometry y="286" width="160" height="20" as="geometry" />
        </mxCell>
        <mxCell id="JgbcZ7sCWgasm3MyN25L-82" value="text: string" style="text;strokeColor=none;fillColor=none;align=left;verticalAlign=top;spacingLeft=14;spacingRight=4;overflow=hidden;rotatable=0;points=[[0,0.5],[1,0.5]];portConstraint=eastwest;whiteSpace=wrap;html=1;fontFamily=Lucida Console;fontSize=10;labelBackgroundColor=none;connectable=0;allowArrows=1;" vertex="1" parent="oHPK-ylT67RkrpIPKsx3-28">
          <mxGeometry y="306" width="160" height="20" as="geometry" />
        </mxCell>
        <mxCell id="JgbcZ7sCWgasm3MyN25L-83" value="image: &amp;lt;imageId&amp;gt;?" style="text;strokeColor=none;fillColor=none;align=left;verticalAlign=top;spacingLeft=14;spacingRight=4;overflow=hidden;rotatable=0;points=[[0,0.5],[1,0.5]];portConstraint=eastwest;whiteSpace=wrap;html=1;fontFamily=Lucida Console;fontSize=10;labelBackgroundColor=none;connectable=0;allowArrows=1;" vertex="1" parent="oHPK-ylT67RkrpIPKsx3-28">
          <mxGeometry y="326" width="160" height="20" as="geometry" />
        </mxCell>
        <mxCell id="oHPK-ylT67RkrpIPKsx3-29" value="" style="endArrow=none;html=1;rounded=0;exitX=1;exitY=0.25;exitDx=0;exitDy=0;entryX=0;entryY=0.25;entryDx=0;entryDy=0;" parent="1" source="oHPK-ylT67RkrpIPKsx3-16" target="oHPK-ylT67RkrpIPKsx3-22" edge="1">
          <mxGeometry relative="1" as="geometry">
            <mxPoint x="-160" y="400" as="sourcePoint" />
            <mxPoint x="-140" y="490" as="targetPoint" />
          </mxGeometry>
        </mxCell>
        <mxCell id="oHPK-ylT67RkrpIPKsx3-30" value="n" style="resizable=0;html=1;whiteSpace=wrap;align=left;verticalAlign=bottom;fontStyle=1" parent="oHPK-ylT67RkrpIPKsx3-29" connectable="0" vertex="1">
          <mxGeometry relative="1" as="geometry">
            <mxPoint x="10" as="offset" />
          </mxGeometry>
        </mxCell>
        <mxCell id="oHPK-ylT67RkrpIPKsx3-31" value="n" style="resizable=0;html=1;whiteSpace=wrap;align=right;verticalAlign=bottom;fontStyle=1" parent="oHPK-ylT67RkrpIPKsx3-29" connectable="0" vertex="1">
          <mxGeometry relative="1" as="geometry">
            <mxPoint x="-10" as="offset" />
          </mxGeometry>
        </mxCell>
        <mxCell id="oHPK-ylT67RkrpIPKsx3-32" value="" style="endArrow=none;html=1;rounded=0;exitX=0.25;exitY=1;exitDx=0;exitDy=0;entryX=0.25;entryY=0;entryDx=0;entryDy=0;" parent="1" source="oHPK-ylT67RkrpIPKsx3-22" target="oHPK-ylT67RkrpIPKsx3-24" edge="1">
          <mxGeometry relative="1" as="geometry">
            <mxPoint x="-0.5899999999999999" y="600" as="sourcePoint" />
            <mxPoint x="119.41" y="600" as="targetPoint" />
          </mxGeometry>
        </mxCell>
        <mxCell id="oHPK-ylT67RkrpIPKsx3-33" value="1" style="resizable=0;html=1;whiteSpace=wrap;align=left;verticalAlign=bottom;fontStyle=1" parent="oHPK-ylT67RkrpIPKsx3-32" connectable="0" vertex="1">
          <mxGeometry relative="1" as="geometry">
            <mxPoint x="-10" y="20" as="offset" />
          </mxGeometry>
        </mxCell>
        <mxCell id="oHPK-ylT67RkrpIPKsx3-34" value="1" style="resizable=0;html=1;whiteSpace=wrap;align=right;verticalAlign=bottom;fontStyle=1" parent="oHPK-ylT67RkrpIPKsx3-32" connectable="0" vertex="1">
          <mxGeometry relative="1" as="geometry">
            <mxPoint as="offset" />
          </mxGeometry>
        </mxCell>
        <mxCell id="oHPK-ylT67RkrpIPKsx3-35" value="" style="endArrow=none;html=1;rounded=0;exitX=1;exitY=0.25;exitDx=0;exitDy=0;entryX=0;entryY=0.25;entryDx=0;entryDy=0;" parent="1" source="oHPK-ylT67RkrpIPKsx3-22" target="oHPK-ylT67RkrpIPKsx3-23" edge="1">
          <mxGeometry relative="1" as="geometry">
            <mxPoint x="-140.59" y="660" as="sourcePoint" />
            <mxPoint x="-130.59" y="740" as="targetPoint" />
          </mxGeometry>
        </mxCell>
        <mxCell id="oHPK-ylT67RkrpIPKsx3-36" value="1" style="resizable=0;html=1;whiteSpace=wrap;align=right;verticalAlign=bottom;fontStyle=1" parent="oHPK-ylT67RkrpIPKsx3-35" connectable="0" vertex="1">
          <mxGeometry relative="1" as="geometry">
            <mxPoint x="20" as="offset" />
          </mxGeometry>
        </mxCell>
        <mxCell id="oHPK-ylT67RkrpIPKsx3-37" value="n" style="resizable=0;html=1;whiteSpace=wrap;align=right;verticalAlign=bottom;fontStyle=1" parent="oHPK-ylT67RkrpIPKsx3-35" connectable="0" vertex="1">
          <mxGeometry relative="1" as="geometry">
            <mxPoint x="-10" as="offset" />
          </mxGeometry>
        </mxCell>
        <mxCell id="oHPK-ylT67RkrpIPKsx3-38" value="" style="endArrow=none;html=1;rounded=0;" parent="1" source="oHPK-ylT67RkrpIPKsx3-24" target="oHPK-ylT67RkrpIPKsx3-25" edge="1">
          <mxGeometry relative="1" as="geometry">
            <mxPoint x="69.41" y="879.41" as="sourcePoint" />
            <mxPoint x="69.41" y="999.41" as="targetPoint" />
          </mxGeometry>
        </mxCell>
        <mxCell id="oHPK-ylT67RkrpIPKsx3-39" value="1" style="resizable=0;html=1;whiteSpace=wrap;align=right;verticalAlign=bottom;fontStyle=1" parent="oHPK-ylT67RkrpIPKsx3-38" connectable="0" vertex="1">
          <mxGeometry relative="1" as="geometry">
            <mxPoint x="20" as="offset" />
          </mxGeometry>
        </mxCell>
        <mxCell id="oHPK-ylT67RkrpIPKsx3-40" value="n" style="resizable=0;html=1;whiteSpace=wrap;align=right;verticalAlign=bottom;fontStyle=1" parent="oHPK-ylT67RkrpIPKsx3-38" connectable="0" vertex="1">
          <mxGeometry relative="1" as="geometry">
            <mxPoint x="-10" as="offset" />
          </mxGeometry>
        </mxCell>
        <mxCell id="oHPK-ylT67RkrpIPKsx3-41" value="" style="endArrow=none;html=1;rounded=0;exitX=0.25;exitY=1;exitDx=0;exitDy=0;entryX=0.25;entryY=0;entryDx=0;entryDy=0;" parent="1" source="oHPK-ylT67RkrpIPKsx3-23" target="oHPK-ylT67RkrpIPKsx3-25" edge="1">
          <mxGeometry relative="1" as="geometry">
            <mxPoint x="100" y="710" as="sourcePoint" />
            <mxPoint x="220" y="710" as="targetPoint" />
          </mxGeometry>
        </mxCell>
        <mxCell id="oHPK-ylT67RkrpIPKsx3-42" value="1" style="resizable=0;html=1;whiteSpace=wrap;align=left;verticalAlign=bottom;fontStyle=1" parent="oHPK-ylT67RkrpIPKsx3-41" connectable="0" vertex="1">
          <mxGeometry relative="1" as="geometry">
            <mxPoint x="-10" y="20" as="offset" />
          </mxGeometry>
        </mxCell>
        <mxCell id="oHPK-ylT67RkrpIPKsx3-43" value="1" style="resizable=0;html=1;whiteSpace=wrap;align=right;verticalAlign=bottom;fontStyle=1" parent="oHPK-ylT67RkrpIPKsx3-41" connectable="0" vertex="1">
          <mxGeometry relative="1" as="geometry" />
        </mxCell>
        <mxCell id="oHPK-ylT67RkrpIPKsx3-44" value="" style="endArrow=none;html=1;rounded=0;exitX=1;exitY=0.25;exitDx=0;exitDy=0;entryX=0;entryY=0.25;entryDx=0;entryDy=0;" parent="1" source="oHPK-ylT67RkrpIPKsx3-25" target="oHPK-ylT67RkrpIPKsx3-28" edge="1">
          <mxGeometry relative="1" as="geometry">
            <mxPoint x="460" y="1169.4099999999999" as="sourcePoint" />
            <mxPoint x="920" y="920" as="targetPoint" />
          </mxGeometry>
        </mxCell>
        <mxCell id="oHPK-ylT67RkrpIPKsx3-45" value="1" style="resizable=0;html=1;whiteSpace=wrap;align=left;verticalAlign=bottom;fontStyle=1" parent="oHPK-ylT67RkrpIPKsx3-44" connectable="0" vertex="1">
          <mxGeometry relative="1" as="geometry">
            <mxPoint x="-10" y="20" as="offset" />
          </mxGeometry>
        </mxCell>
        <mxCell id="oHPK-ylT67RkrpIPKsx3-46" value="n" style="resizable=0;html=1;whiteSpace=wrap;align=right;verticalAlign=bottom;fontStyle=1" parent="oHPK-ylT67RkrpIPKsx3-44" connectable="0" vertex="1">
          <mxGeometry relative="1" as="geometry" />
        </mxCell>
        <mxCell id="oHPK-ylT67RkrpIPKsx3-49" value="users" style="swimlane;html=1;fontStyle=0;childLayout=stackLayout;horizontal=1;startSize=26;horizontalStack=0;resizeParent=1;resizeLast=0;collapsible=1;marginBottom=0;swimlaneFillColor=#ffffff;rounded=0;shadow=0;comic=0;labelBackgroundColor=none;strokeWidth=1;fontFamily=Lucida Console;fontSize=10;align=center;fillColor=#fff2cc;strokeColor=#d6b656;swimlaneLine=1;glass=0;" parent="1" vertex="1">
          <mxGeometry x="1280" y="800" width="160" height="360" as="geometry">
            <mxRectangle x="960" y="760" width="160" height="30" as="alternateBounds" />
          </mxGeometry>
        </mxCell>
        <mxCell id="JgbcZ7sCWgasm3MyN25L-91" value="id: string" style="text;strokeColor=none;fillColor=none;align=left;verticalAlign=top;spacingLeft=4;spacingRight=4;overflow=hidden;rotatable=0;points=[[0,0.5],[1,0.5]];portConstraint=eastwest;whiteSpace=wrap;html=1;fontFamily=Lucida Console;fontSize=10;labelBackgroundColor=none;connectable=0;allowArrows=1;" vertex="1" parent="oHPK-ylT67RkrpIPKsx3-49">
          <mxGeometry y="26" width="160" height="20" as="geometry" />
        </mxCell>
        <mxCell id="oHPK-ylT67RkrpIPKsx3-50" value="" style="endArrow=none;html=1;rounded=0;" parent="1" source="oHPK-ylT67RkrpIPKsx3-28" target="oHPK-ylT67RkrpIPKsx3-49" edge="1">
          <mxGeometry relative="1" as="geometry">
            <mxPoint x="985" y="960" as="sourcePoint" />
            <mxPoint x="1105" y="960" as="targetPoint" />
          </mxGeometry>
        </mxCell>
        <mxCell id="oHPK-ylT67RkrpIPKsx3-51" value="n" style="resizable=0;html=1;whiteSpace=wrap;align=left;verticalAlign=bottom;fontStyle=1" parent="oHPK-ylT67RkrpIPKsx3-50" connectable="0" vertex="1">
          <mxGeometry relative="1" as="geometry">
            <mxPoint x="10" as="offset" />
          </mxGeometry>
        </mxCell>
        <mxCell id="oHPK-ylT67RkrpIPKsx3-52" value="1" style="resizable=0;html=1;whiteSpace=wrap;align=right;verticalAlign=bottom;fontStyle=1" parent="oHPK-ylT67RkrpIPKsx3-50" connectable="0" vertex="1">
          <mxGeometry relative="1" as="geometry">
            <mxPoint x="-10" as="offset" />
          </mxGeometry>
        </mxCell>
        <mxCell id="oHPK-ylT67RkrpIPKsx3-47" value="Firebase " style="html=1;whiteSpace=wrap;fontFamily=Lucida Console;labelBackgroundColor=none;fillColor=#fff2cc;strokeColor=#d6b656;" parent="1" vertex="1">
          <mxGeometry width="160" height="40" as="geometry" />
        </mxCell>
        <mxCell id="oHPK-ylT67RkrpIPKsx3-56" value="questions.yaml" style="rounded=1;arcSize=10;whiteSpace=wrap;html=1;align=center;fontFamily=Lucida Console;fontSize=10;" parent="1" vertex="1">
          <mxGeometry y="160" width="160" height="40" as="geometry" />
        </mxCell>
        <mxCell id="oHPK-ylT67RkrpIPKsx3-57" value="(1) story_set_questions" style="endArrow=classic;html=1;rounded=0;endFill=1;fontFamily=Lucida Console;fontSize=10;strokeWidth=3;fillColor=#dae8fc;strokeColor=#6c8ebf;" parent="1" source="oHPK-ylT67RkrpIPKsx3-56" target="oHPK-ylT67RkrpIPKsx3-16" edge="1">
          <mxGeometry relative="1" as="geometry">
            <mxPoint x="-370" y="399" as="sourcePoint" />
            <mxPoint x="-250" y="399" as="targetPoint" />
            <mxPoint as="offset" />
          </mxGeometry>
        </mxCell>
        <mxCell id="oHPK-ylT67RkrpIPKsx3-58" value="" style="resizable=0;html=1;whiteSpace=wrap;align=left;verticalAlign=bottom;fontStyle=1" parent="oHPK-ylT67RkrpIPKsx3-57" connectable="0" vertex="1">
          <mxGeometry relative="1" as="geometry" />
        </mxCell>
        <mxCell id="oHPK-ylT67RkrpIPKsx3-66" value="npm script" style="endArrow=classic;html=1;rounded=0;endFill=1;fontFamily=Lucida Console;fontSize=10;strokeWidth=3;fillColor=#dae8fc;strokeColor=#6c8ebf;" parent="1" edge="1">
          <mxGeometry y="20" relative="1" as="geometry">
            <mxPoint x="200" y="39" as="sourcePoint" />
            <mxPoint x="280" y="39" as="targetPoint" />
            <mxPoint as="offset" />
          </mxGeometry>
        </mxCell>
        <mxCell id="oHPK-ylT67RkrpIPKsx3-67" value="" style="resizable=0;html=1;whiteSpace=wrap;align=left;verticalAlign=bottom;fontStyle=1" parent="oHPK-ylT67RkrpIPKsx3-66" connectable="0" vertex="1">
          <mxGeometry relative="1" as="geometry" />
        </mxCell>
        <mxCell id="oHPK-ylT67RkrpIPKsx3-68" value="(2) story_gen_forms" style="endArrow=classic;html=1;rounded=0;endFill=1;fontFamily=Lucida Console;fontSize=10;strokeWidth=3;fillColor=#dae8fc;strokeColor=#6c8ebf;align=center;verticalAlign=middle;exitX=1;exitY=0.75;exitDx=0;exitDy=0;entryX=0;entryY=0.75;entryDx=0;entryDy=0;" parent="1" source="oHPK-ylT67RkrpIPKsx3-16" target="oHPK-ylT67RkrpIPKsx3-22" edge="1">
          <mxGeometry y="20" relative="1" as="geometry">
            <mxPoint x="-50" y="420" as="sourcePoint" />
            <mxPoint x="-40" y="480" as="targetPoint" />
            <mxPoint as="offset" />
          </mxGeometry>
        </mxCell>
        <mxCell id="oHPK-ylT67RkrpIPKsx3-69" value="" style="resizable=0;html=1;whiteSpace=wrap;align=left;verticalAlign=bottom;fontStyle=1" parent="oHPK-ylT67RkrpIPKsx3-68" connectable="0" vertex="1">
          <mxGeometry relative="1" as="geometry" />
        </mxCell>
        <mxCell id="oHPK-ylT67RkrpIPKsx3-70" value="(3) onStoryForm" style="endArrow=classic;html=1;rounded=0;endFill=1;fontFamily=Lucida Console;fontSize=10;strokeWidth=3;fillColor=#fff2cc;strokeColor=#d6b656;align=center;verticalAlign=middle;entryX=0;entryY=0.75;entryDx=0;entryDy=0;exitX=1;exitY=0.75;exitDx=0;exitDy=0;" parent="1" source="oHPK-ylT67RkrpIPKsx3-22" target="oHPK-ylT67RkrpIPKsx3-23" edge="1">
          <mxGeometry y="20" relative="1" as="geometry">
            <mxPoint x="509.41" y="350" as="sourcePoint" />
            <mxPoint x="-0.5899999999999999" y="740" as="targetPoint" />
            <mxPoint as="offset" />
          </mxGeometry>
        </mxCell>
        <mxCell id="oHPK-ylT67RkrpIPKsx3-71" value="" style="resizable=0;html=1;whiteSpace=wrap;align=left;verticalAlign=bottom;fontStyle=1" parent="oHPK-ylT67RkrpIPKsx3-70" connectable="0" vertex="1">
          <mxGeometry relative="1" as="geometry" />
        </mxCell>
        <mxCell id="oHPK-ylT67RkrpIPKsx3-72" value="Cloud function" style="endArrow=classic;html=1;rounded=0;endFill=1;fontFamily=Lucida Console;fontSize=10;strokeWidth=3;fillColor=#fff2cc;strokeColor=#d6b656;" parent="1" edge="1">
          <mxGeometry y="20" relative="1" as="geometry">
            <mxPoint x="200" y="99.5" as="sourcePoint" />
            <mxPoint x="280" y="99.5" as="targetPoint" />
            <mxPoint as="offset" />
          </mxGeometry>
        </mxCell>
        <mxCell id="oHPK-ylT67RkrpIPKsx3-73" value="" style="resizable=0;html=1;whiteSpace=wrap;align=left;verticalAlign=bottom;fontStyle=1" parent="oHPK-ylT67RkrpIPKsx3-72" connectable="0" vertex="1">
          <mxGeometry relative="1" as="geometry" />
        </mxCell>
        <mxCell id="oHPK-ylT67RkrpIPKsx3-74" value="(4) story_serve_form" style="endArrow=classic;html=1;rounded=0;endFill=1;fontFamily=Lucida Console;fontSize=10;strokeWidth=3;fillColor=#dae8fc;strokeColor=#6c8ebf;align=center;verticalAlign=middle;exitX=0.75;exitY=1;exitDx=0;exitDy=0;entryX=0.75;entryY=0;entryDx=0;entryDy=0;" parent="1" source="oHPK-ylT67RkrpIPKsx3-22" target="oHPK-ylT67RkrpIPKsx3-24" edge="1">
          <mxGeometry relative="1" as="geometry">
            <mxPoint x="-0.5899999999999999" y="560" as="sourcePoint" />
            <mxPoint x="119.41" y="560" as="targetPoint" />
            <mxPoint as="offset" />
          </mxGeometry>
        </mxCell>
        <mxCell id="oHPK-ylT67RkrpIPKsx3-75" value="" style="resizable=0;html=1;whiteSpace=wrap;align=left;verticalAlign=bottom;fontStyle=1" parent="oHPK-ylT67RkrpIPKsx3-74" connectable="0" vertex="1">
          <mxGeometry relative="1" as="geometry" />
        </mxCell>
        <mxCell id="oHPK-ylT67RkrpIPKsx3-76" value="(4) story_serve_form" style="endArrow=classic;html=1;rounded=0;endFill=1;fontFamily=Lucida Console;fontSize=10;strokeWidth=3;fillColor=#dae8fc;strokeColor=#6c8ebf;align=center;verticalAlign=middle;exitX=0.75;exitY=1;exitDx=0;exitDy=0;entryX=0.75;entryY=0;entryDx=0;entryDy=0;" parent="1" source="oHPK-ylT67RkrpIPKsx3-23" target="oHPK-ylT67RkrpIPKsx3-25" edge="1">
          <mxGeometry relative="1" as="geometry">
            <mxPoint x="50" y="730" as="sourcePoint" />
            <mxPoint x="170" y="730" as="targetPoint" />
            <mxPoint as="offset" />
          </mxGeometry>
        </mxCell>
        <mxCell id="oHPK-ylT67RkrpIPKsx3-77" value="" style="resizable=0;html=1;whiteSpace=wrap;align=left;verticalAlign=bottom;fontStyle=1" parent="oHPK-ylT67RkrpIPKsx3-76" connectable="0" vertex="1">
          <mxGeometry relative="1" as="geometry" />
        </mxCell>
        <mxCell id="oHPK-ylT67RkrpIPKsx3-80" value="(1) story_set_questions: load a YAML file into Firestore.&lt;br&gt;(2) story_gen_forms: generate forms from the questions in Firestore.&lt;br&gt;(3) onStoryForm: when a new form is added to Firestore, generate all the&lt;br&gt;&amp;nbsp;&amp;nbsp;&amp;nbsp; corresponding stories in the `landing` layer. If a story fails, retry it.&lt;br&gt;&amp;nbsp;&amp;nbsp;&amp;nbsp; When all stories are generated, mark the form as &quot;can be served&quot;.&lt;br&gt;(4) story_serve_form: copy a form that can be served and its related&lt;br&gt;&amp;nbsp;&amp;nbsp;&amp;nbsp; questions and stories from the `landing` layer to the `serving` layer.&lt;br&gt;&lt;div&gt;(5) createStory: on user&#39;s action, make a story in the `serving` layer&lt;/div&gt;&lt;div&gt;&amp;nbsp;&amp;nbsp;&amp;nbsp; available for that user.&lt;/div&gt;" style="text;html=1;strokeColor=none;fillColor=none;align=left;verticalAlign=top;whiteSpace=wrap;rounded=0;fontFamily=Lucida Console;fontSize=10;" parent="1" vertex="1">
          <mxGeometry x="360" width="480" height="120" as="geometry" />
        </mxCell>
        <mxCell id="JgbcZ7sCWgasm3MyN25L-1" value="story__questions_serving" style="swimlane;html=1;fontStyle=0;childLayout=stackLayout;horizontal=1;startSize=26;horizontalStack=0;resizeParent=1;resizeLast=0;collapsible=1;marginBottom=0;swimlaneFillColor=#ffffff;rounded=0;shadow=0;comic=0;labelBackgroundColor=none;strokeWidth=1;fontFamily=Lucida Console;fontSize=10;align=center;fillColor=#f8cecc;strokeColor=#b85450;swimlaneLine=1;glass=0;" vertex="1" parent="1">
          <mxGeometry y="800" width="160" height="360" as="geometry">
            <mxRectangle y="520" width="160" height="30" as="alternateBounds" />
          </mxGeometry>
        </mxCell>
        <mxCell id="JgbcZ7sCWgasm3MyN25L-13" value="id: string" style="text;strokeColor=none;fillColor=none;align=left;verticalAlign=top;spacingLeft=4;spacingRight=4;overflow=hidden;rotatable=0;points=[[0,0.5],[1,0.5]];portConstraint=eastwest;whiteSpace=wrap;html=1;fontFamily=Lucida Console;fontSize=10;labelBackgroundColor=none;" vertex="1" parent="JgbcZ7sCWgasm3MyN25L-1">
          <mxGeometry y="26" width="160" height="20" as="geometry" />
        </mxCell>
        <mxCell id="JgbcZ7sCWgasm3MyN25L-14" value="text: string" style="text;strokeColor=none;fillColor=none;align=left;verticalAlign=top;spacingLeft=4;spacingRight=4;overflow=hidden;rotatable=0;points=[[0,0.5],[1,0.5]];portConstraint=eastwest;whiteSpace=wrap;html=1;fontFamily=Lucida Console;fontSize=10;labelBackgroundColor=none;" vertex="1" parent="JgbcZ7sCWgasm3MyN25L-1">
          <mxGeometry y="46" width="160" height="20" as="geometry" />
        </mxCell>
        <mxCell id="JgbcZ7sCWgasm3MyN25L-23" value="choices/" style="text;strokeColor=none;fillColor=none;align=left;verticalAlign=bottom;spacingLeft=4;spacingRight=4;overflow=hidden;rotatable=0;points=[[0,0.5],[1,0.5]];portConstraint=eastwest;whiteSpace=wrap;html=1;fontFamily=Lucida Console;fontSize=10;labelBackgroundColor=none;" vertex="1" parent="JgbcZ7sCWgasm3MyN25L-1">
          <mxGeometry y="66" width="160" height="30" as="geometry" />
        </mxCell>
        <mxCell id="JgbcZ7sCWgasm3MyN25L-24" value="id: string" style="text;strokeColor=none;fillColor=none;align=left;verticalAlign=top;spacingLeft=14;spacingRight=4;overflow=hidden;rotatable=0;points=[[0,0.5],[1,0.5]];portConstraint=eastwest;whiteSpace=wrap;html=1;fontFamily=Lucida Console;fontSize=10;labelBackgroundColor=none;" vertex="1" parent="JgbcZ7sCWgasm3MyN25L-1">
          <mxGeometry y="96" width="160" height="20" as="geometry" />
        </mxCell>
        <mxCell id="JgbcZ7sCWgasm3MyN25L-25" value="text: string" style="text;strokeColor=none;fillColor=none;align=left;verticalAlign=top;spacingLeft=14;spacingRight=4;overflow=hidden;rotatable=0;points=[[0,0.5],[1,0.5]];portConstraint=eastwest;whiteSpace=wrap;html=1;fontFamily=Lucida Console;fontSize=10;labelBackgroundColor=none;" vertex="1" parent="JgbcZ7sCWgasm3MyN25L-1">
          <mxGeometry y="116" width="160" height="20" as="geometry" />
        </mxCell>
        <mxCell id="JgbcZ7sCWgasm3MyN25L-26" value="image: bytes" style="text;strokeColor=none;fillColor=none;align=left;verticalAlign=top;spacingLeft=14;spacingRight=4;overflow=hidden;rotatable=0;points=[[0,0.5],[1,0.5]];portConstraint=eastwest;whiteSpace=wrap;html=1;fontFamily=Lucida Console;fontSize=10;labelBackgroundColor=none;" vertex="1" parent="JgbcZ7sCWgasm3MyN25L-1">
          <mxGeometry y="136" width="160" height="20" as="geometry" />
        </mxCell>
        <mxCell id="JgbcZ7sCWgasm3MyN25L-3" value="" style="endArrow=none;html=1;rounded=0;exitX=0.25;exitY=1;exitDx=0;exitDy=0;entryX=0.25;entryY=0;entryDx=0;entryDy=0;" edge="1" parent="1" source="oHPK-ylT67RkrpIPKsx3-16" target="JgbcZ7sCWgasm3MyN25L-1">
          <mxGeometry relative="1" as="geometry">
            <mxPoint x="210" y="420" as="sourcePoint" />
            <mxPoint x="210" y="540" as="targetPoint" />
          </mxGeometry>
        </mxCell>
        <mxCell id="JgbcZ7sCWgasm3MyN25L-4" value="1" style="resizable=0;html=1;whiteSpace=wrap;align=left;verticalAlign=bottom;fontStyle=1" connectable="0" vertex="1" parent="JgbcZ7sCWgasm3MyN25L-3">
          <mxGeometry relative="1" as="geometry">
            <mxPoint x="-10" y="20" as="offset" />
          </mxGeometry>
        </mxCell>
        <mxCell id="JgbcZ7sCWgasm3MyN25L-5" value="1" style="resizable=0;html=1;whiteSpace=wrap;align=right;verticalAlign=bottom;fontStyle=1" connectable="0" vertex="1" parent="JgbcZ7sCWgasm3MyN25L-3">
          <mxGeometry relative="1" as="geometry">
            <mxPoint as="offset" />
          </mxGeometry>
        </mxCell>
        <mxCell id="JgbcZ7sCWgasm3MyN25L-6" value="(4) story_serve_form" style="endArrow=classic;html=1;rounded=0;endFill=1;fontFamily=Lucida Console;fontSize=10;strokeWidth=3;fillColor=#dae8fc;strokeColor=#6c8ebf;align=center;verticalAlign=middle;exitX=0.75;exitY=1;exitDx=0;exitDy=0;entryX=0.75;entryY=0;entryDx=0;entryDy=0;" edge="1" parent="1" source="oHPK-ylT67RkrpIPKsx3-16" target="JgbcZ7sCWgasm3MyN25L-1">
          <mxGeometry relative="1" as="geometry">
            <mxPoint x="200" y="410" as="sourcePoint" />
            <mxPoint x="200" y="530" as="targetPoint" />
            <mxPoint as="offset" />
          </mxGeometry>
        </mxCell>
        <mxCell id="JgbcZ7sCWgasm3MyN25L-7" value="" style="resizable=0;html=1;whiteSpace=wrap;align=left;verticalAlign=bottom;fontStyle=1" connectable="0" vertex="1" parent="JgbcZ7sCWgasm3MyN25L-6">
          <mxGeometry relative="1" as="geometry" />
        </mxCell>
        <mxCell id="JgbcZ7sCWgasm3MyN25L-34" value="" style="endArrow=none;html=1;rounded=0;" edge="1" parent="1" source="JgbcZ7sCWgasm3MyN25L-1" target="oHPK-ylT67RkrpIPKsx3-24">
          <mxGeometry relative="1" as="geometry">
            <mxPoint x="170" y="770" as="sourcePoint" />
            <mxPoint x="330" y="770" as="targetPoint" />
          </mxGeometry>
        </mxCell>
        <mxCell id="JgbcZ7sCWgasm3MyN25L-35" value="n" style="resizable=0;html=1;whiteSpace=wrap;align=left;verticalAlign=bottom;fontStyle=1" connectable="0" vertex="1" parent="JgbcZ7sCWgasm3MyN25L-34">
          <mxGeometry relative="1" as="geometry">
            <mxPoint x="10" as="offset" />
          </mxGeometry>
        </mxCell>
        <mxCell id="JgbcZ7sCWgasm3MyN25L-36" value="n" style="resizable=0;html=1;whiteSpace=wrap;align=right;verticalAlign=bottom;fontStyle=1" connectable="0" vertex="1" parent="JgbcZ7sCWgasm3MyN25L-34">
          <mxGeometry relative="1" as="geometry">
            <mxPoint x="-10" as="offset" />
          </mxGeometry>
        </mxCell>
      </root>
    </mxGraphModel>
  </diagram>
</mxfile>
